<svg height='300px' width='300px'  fill="#91a3ad" xmlns="http://www.w3.org/2000/svg" xmlns:xlink="http://www.w3.org/1999/xlink" xml:space="preserve" version="1.1" style="shape-rendering:geometricPrecision;text-rendering:geometricPrecision;image-rendering:optimizeQuality;" viewBox="0 0 336 297" x="0px" y="0px" fill-rule="evenodd" clip-rule="evenodd"><defs><style type="text/css">
   
    .fil0 {fill:#91a3ad;fill-rule:nonzero}
   
  </style></defs><g><path class="fil0" d="M136 0c45,0 82,37 82,82 0,21 -8,40 -21,54 20,10 37,25 50,44 8,-5 18,-7 27,-7 35,0 62,28 62,62 0,34 -27,62 -62,62 -34,0 -61,-28 -61,-62 0,-18 7,-34 20,-46 -13,-18 -30,-32 -50,-41 -13,10 -30,15 -47,15 -17,0 -33,-5 -46,-15 -45,19 -73,62 -73,110l-17 0c0,-52 29,-99 76,-122 -13,-14 -21,-33 -21,-54 0,-45 36,-82 81,-82zm138 190c-24,0 -44,20 -44,45 0,25 20,45 44,45 25,0 45,-20 45,-45 0,-25 -20,-45 -45,-45zm-138 -173c-36,0 -64,29 -64,65 0,35 28,64 64,64 36,0 65,-29 65,-64 0,-36 -29,-65 -65,-65z"></path><polygon class="fil0" points="283,201 283,227 304,227 304,244 283,244 283,269 266,269 266,244 245,244 245,227 266,227 266,201 "></polygon></g></svg>